<svg width="500" height="500" viewBox="0 0 500 500" fill="none" xmlns="http://www.w3.org/2000/svg">
<rect width="500" height="500" fill="white"/>
<g clip-path="url(#clip0)">
<path d="M245.699 89L122.275 155.854C124.386 159.487 125.745 163.507 126.274 167.676C126.802 171.844 126.488 176.077 125.351 180.122C124.214 184.167 122.276 187.942 119.653 191.225C117.029 194.507 113.774 197.23 110.079 199.231C106.385 201.233 102.326 202.472 98.1431 202.876C93.9606 203.28 89.7396 202.84 85.7302 201.583C81.7208 200.325 78.0045 198.276 74.8016 195.556C71.5988 192.836 68.9744 189.501 67.0841 185.748L25 208.543L134.011 409.798L354.71 290.254L245.699 89Z" fill="#F2F2F2"/>
<path d="M89.3358 245.547L178.285 259.706L171.059 305.107L101.567 294.045L98.7649 311.65L93.068 292.693L82.1091 290.948L89.3358 245.547Z" fill="#6C63FF"/>
<path opacity="0.2" d="M89.3358 245.547L178.285 259.706L171.059 305.107L101.567 294.045L98.7649 311.65L93.068 292.693L82.1091 290.948L89.3358 245.547Z" fill="#613A3A"/>
<path d="M104.433 264.102L158.174 272.656L158.911 268.023L105.171 259.469L104.433 264.102Z" fill="#F2F2F2"/>
<path d="M102.958 273.368L156.699 281.922L157.436 277.289L103.696 268.735L102.958 273.368Z" fill="#F2F2F2"/>
<path d="M101.484 282.631L155.224 291.186L155.961 286.553L102.221 277.999L101.484 282.631Z" fill="#F2F2F2"/>
<path d="M83.2429 310.726L165.912 274.973L184.161 317.168L119.576 345.101L126.652 361.462L111.678 348.517L101.492 352.922L83.2429 310.726Z" fill="#6C63FF"/>
<path d="M105.936 318.289L155.882 296.688L154.02 292.382L104.074 313.983L105.936 318.289Z" fill="#F2F2F2"/>
<path d="M109.66 326.9L159.606 305.299L157.744 300.993L107.798 322.594L109.66 326.9Z" fill="#F2F2F2"/>
<path d="M113.383 335.511L163.329 313.91L161.467 309.604L111.521 331.206L113.383 335.511Z" fill="#F2F2F2"/>
<path d="M95.9089 228.162L178.578 192.408L196.827 234.604L132.242 262.537L139.318 278.898L124.344 265.953L114.158 270.358L95.9089 228.162Z" fill="#6C63FF"/>
<path d="M118.602 235.726L168.548 214.125L166.685 209.819L116.74 231.42L118.602 235.726Z" fill="#F2F2F2"/>
<path d="M122.326 244.337L172.272 222.736L170.41 218.431L120.464 240.032L122.326 244.337Z" fill="#F2F2F2"/>
<path d="M126.049 252.949L175.995 231.348L174.133 227.042L124.187 248.643L126.049 252.949Z" fill="#F2F2F2"/>
<path d="M102.212 126.039L432.893 140.171C432.893 140.171 484.709 305.04 446.082 375.699L132.83 410.086C132.83 410.086 198.778 287.611 102.212 126.039Z" fill="#3F3D56"/>
<path d="M152.615 202.822L431.48 198.111" stroke="#242244" stroke-width="2" stroke-miterlimit="10"/>
<path d="M160.152 224.491L441.843 218.838" stroke="#242244" stroke-width="2" stroke-miterlimit="10"/>
<path d="M108.908 137.645L435.542 149.13" stroke="#242244" stroke-width="2" stroke-miterlimit="10"/>
<path opacity="0.2" d="M354.636 306.454C354.636 307.153 354.631 307.852 354.612 308.542V308.546C354.584 310.254 354.518 311.933 354.41 313.603C354.298 315.395 354.145 317.164 353.951 318.909C352.051 335.971 346.318 350.837 338.273 360.998C333.713 366.763 328.408 371.018 322.633 373.307C320.869 374.009 319.038 374.527 317.168 374.85C315.716 375.1 314.245 375.226 312.772 375.226C305.862 375.226 299.341 372.477 293.6 367.598C282.505 358.192 274.296 340.873 271.748 320.18V320.176C271.317 316.676 271.045 313.087 270.956 309.419C270.927 308.438 270.913 307.45 270.913 306.454C270.913 268.47 289.654 237.678 312.772 237.678C318.247 237.678 323.477 239.404 328.272 242.547C328.412 242.636 328.553 242.73 328.689 242.829C331.327 244.632 333.744 246.738 335.89 249.105C337.27 250.616 338.56 252.206 339.755 253.867C341.288 256.001 342.686 258.229 343.94 260.537C344.991 262.461 345.98 264.487 346.891 266.603V266.608C347.838 268.784 348.706 271.052 349.494 273.41V273.415C351.872 280.629 353.424 288.091 354.12 295.655C354.462 299.173 354.636 302.781 354.636 306.454Z" fill="#613A3A"/>
<path d="M127.862 131.455C128.221 132.801 127.79 134.362 126.902 134.94C126.016 135.517 125.009 134.898 124.652 133.558C124.294 132.218 124.72 130.661 125.605 130.078C126.492 129.494 127.503 130.11 127.862 131.455Z" fill="#6C63FF"/>
<path d="M135.388 131.338C135.746 132.684 135.316 134.244 134.428 134.823C133.541 135.4 132.535 134.781 132.177 133.441C131.82 132.101 132.246 130.543 133.131 129.961C134.018 129.377 135.029 129.993 135.388 131.338Z" fill="#6C63FF"/>
<path d="M120.336 131.573C120.695 132.918 120.264 134.479 119.376 135.057C118.49 135.635 117.484 135.015 117.126 133.675C116.769 132.336 117.195 130.778 118.08 130.195C118.966 129.611 119.977 130.227 120.336 131.573Z" fill="#6C63FF"/>
<path d="M355.266 266.8L357.701 274.046L360.337 274.249L357.967 256.187C358.848 244.779 354.085 234.714 342.677 233.834H342.677C338.852 233.539 335.066 234.775 332.153 237.271C329.239 239.767 327.437 243.318 327.141 247.144L325.796 264.574C325.653 266.422 326.25 268.251 327.456 269.658C328.662 271.066 330.377 271.937 332.225 272.079L352.678 273.658L355.266 266.8Z" fill="#242244"/>
<path d="M357.837 308.066C357.837 308.066 360.002 313.944 363.714 314.871C367.426 315.799 394.955 322.295 394.955 322.295C394.955 322.295 419.082 322.914 411.659 328.172C404.235 333.431 392.172 328.172 392.172 328.172C392.172 328.172 356.909 323.842 354.125 319.202C352.293 316.044 350.74 312.732 349.485 309.304L357.837 308.066Z" fill="#FBBEBE"/>
<path d="M346.083 282.084C346.083 282.084 363.714 310.851 361.549 311.469C359.384 312.088 339.278 318.584 338.35 316.109C337.422 313.635 337.422 302.19 337.422 302.19L346.083 282.084Z" fill="#FF6584"/>
<path opacity="0.15" d="M346.083 282.084C346.083 282.084 363.714 310.851 361.549 311.469C359.384 312.088 339.278 318.584 338.35 316.109C337.422 313.635 337.422 302.19 337.422 302.19L346.083 282.084Z" fill="#613A3A"/>
<path d="M297.643 272.562L271.473 308.951C271.473 308.951 254.071 324.493 260.593 326.36C267.115 328.227 277.467 313.175 277.467 313.175L307.631 275.084L297.643 272.562Z" fill="#FBBEBE"/>
<path d="M351.341 259.195C351.341 259.195 343.608 270.949 344.227 273.733C344.227 273.733 343.608 275.589 344.536 276.826C345.464 278.064 345.155 285.487 345.155 285.487L342.062 289.818L338.041 276.517L336.185 262.288C336.185 262.288 340.36 256.566 339.742 253.782C339.123 250.998 351.341 259.195 351.341 259.195Z" fill="#FBBEBE"/>
<path d="M338.273 360.999C333.713 366.764 328.408 371.019 322.633 373.308C320.869 374.011 319.038 374.528 317.168 374.852C318.158 352.893 319.297 333.307 320.1 331.576C321.957 327.556 326.906 326.008 326.906 326.008C326.906 326.008 327.394 327.317 328.211 329.592C330.326 335.521 334.651 348.019 338.273 360.999Z" fill="#FF6584"/>
<path opacity="0.15" d="M338.273 360.999C333.713 366.764 328.408 371.019 322.633 373.308C320.869 374.011 319.038 374.528 317.168 374.852C318.158 352.893 319.297 333.307 320.1 331.576C321.957 327.556 326.906 326.008 326.906 326.008C326.906 326.008 327.394 327.317 328.211 329.592C330.326 335.521 334.651 348.019 338.273 360.999Z" fill="#613A3A"/>
<path d="M347.32 261.05C353.641 261.05 358.765 255.926 358.765 249.605C358.765 243.284 353.641 238.16 347.32 238.16C340.999 238.16 335.875 243.284 335.875 249.605C335.875 255.926 340.999 261.05 347.32 261.05Z" fill="#FBBEBE"/>
<path d="M342.373 302.501C340.234 304.537 338.662 306.038 337.508 307.183C335.163 309.5 334.534 310.33 334.328 311.161C334.018 312.399 332.475 312.399 332.475 312.399L328.211 329.592L323.501 348.586C323.501 348.586 323.196 359.141 322.633 373.309C320.869 374.011 319.038 374.528 317.168 374.852C315.716 375.102 314.245 375.228 312.772 375.227C305.862 375.227 299.341 372.478 293.6 367.599C293.679 349.482 293.496 330.957 293.496 330.957C293.496 330.957 288.547 322.917 305.562 307.14C305.562 307.14 308.245 299.316 311.022 291.458C313.814 283.54 316.699 275.588 317.008 275.588C317.215 275.588 318.692 273.698 320.569 271.178C322.215 268.974 324.172 266.281 325.842 263.949C327.995 260.966 329.688 258.578 329.688 258.578C329.688 258.578 334.769 258.578 336.945 261.172C337.303 261.588 337.572 262.074 337.734 262.598C338.259 264.311 339.46 268.49 340.665 272.731C342.284 278.44 343.916 284.248 343.916 284.248L344.747 277.267C344.747 277.267 347.322 280.847 347.322 283.629C347.322 283.779 347.327 283.948 347.332 284.14C347.468 287.475 348.514 296.646 342.373 302.501Z" fill="#FF6584"/>
<path d="M333.401 261.049L329.689 258.574C329.689 258.574 314.223 267.854 303.397 268.472C292.571 269.091 292.88 275.277 297.21 279.608C301.541 283.938 318.553 298.786 319.172 295.074C319.791 291.362 333.401 261.049 333.401 261.049Z" fill="#FF6584"/>
<path d="M353.792 235.32C351.304 234.481 345.286 234.034 344.406 233.966C342.285 233.802 340.152 234.058 338.13 234.718C336.108 235.379 334.235 236.431 332.62 237.815C331.004 239.199 329.677 240.888 328.714 242.785C327.751 244.681 327.172 246.749 327.008 248.87L319.178 271.071L331.013 271.984L333.859 263.735L336.327 272.395L342.285 272.854L343.188 267.835L344.814 273.05L351.45 273.562C347.348 261.932 345.495 251.477 352.514 245.654C356.877 246.595 360.687 245.701 361.477 243.358C362.388 240.657 358.947 237.058 353.792 235.32Z" fill="#242244"/>
<path d="M384.931 261.613H475V307.586H404.634V325.412L396.028 307.586H384.931V261.613Z" fill="#6C63FF"/>
<path d="M402.757 277.562H457.174V272.871H402.757V277.562Z" fill="#F2F2F2"/>
<path d="M402.757 286.945H457.174V282.254H402.757V286.945Z" fill="#F2F2F2"/>
<path d="M402.757 296.326H457.174V291.635H402.757V296.326Z" fill="#F2F2F2"/>
<path opacity="0.2" d="M310.466 162.077L287.805 156.023L281.751 178.684L304.412 184.738L310.466 162.077Z" fill="#6C63FF"/>
<path d="M302.262 186.867C306.085 186.867 309.184 183.768 309.184 179.945C309.184 176.123 306.085 173.023 302.262 173.023C298.439 173.023 295.34 176.123 295.34 179.945C295.34 183.768 298.439 186.867 302.262 186.867Z" stroke="#3F3D56" stroke-width="2" stroke-miterlimit="10"/>
</g>
<defs>
<clipPath id="clip0">
<rect width="450" height="321.086" fill="white" transform="translate(25 89)"/>
</clipPath>
</defs>
</svg>
